<?xml version="1.0" encoding="utf-8"?>
<svg version="1.1" xmlns:xlink="http://www.w3.org/1999/xlink" width="58px" height="47px" xmlns="http://www.w3.org/2000/svg">
  <g transform="matrix(1 0 0 1 -278 -365 )">
    <path d="M 17.6416666666667 9.546875  C 18.7694444444444 10.6892361111111  19.3333333333333 12.0763888888889  19.3333333333333 13.7083333333333  C 19.3333333333333 15.3402777777778  18.7694444444444 16.7274305555556  17.6416666666667 17.8697916666667  C 16.5138888888889 19.0121527777778  15.1444444444444 19.5833333333333  13.5333333333333 19.5833333333333  C 11.9222222222222 19.5833333333333  10.5527777777778 19.0121527777778  9.425 17.8697916666667  C 8.29722222222222 16.7274305555556  7.73333333333333 15.3402777777778  7.73333333333333 13.7083333333333  C 7.73333333333333 12.0763888888889  8.29722222222222 10.6892361111111  9.425 9.546875  C 10.5527777777778 8.40451388888888  11.9222222222222 7.83333333333333  13.5333333333333 7.83333333333333  C 15.1444444444444 7.83333333333333  16.5138888888889 8.40451388888888  17.6416666666667 9.546875  Z M 37.7 12.7291666666667  L 50 25.4583333333333  L 50 39  L 7.73333333333333 39  L 7.73333333333333 33.2916666666667  L 17.4 23.5  L 22.2333333333333 28.3958333333333  L 37.7 12.7291666666667  Z M 53.8463541666667 4.20735677083333  C 53.6550347222222 4.01356336805555  53.4284722222222 3.91666666666667  53.1666666666667 4  L 4.83333333333333 4  C 4.57152777777778 3.91666666666667  4.34496527777778 4.01356336805555  4.15364583333333 4.20735677083333  C 3.96232638888889 4.40115017361111  3.86666666666667 4.63064236111111  4 4.89583333333333  L 4 42.1041666666667  C 3.86666666666667 42.3693576388889  3.96232638888889 42.5988498263889  4.15364583333333 42.7926432291667  C 4.34496527777778 42.9864366319444  4.57152777777778 43.0833333333333  4.83333333333333 43  L 53.1666666666667 43  C 53.4284722222222 43.0833333333333  53.6550347222222 42.9864366319444  53.8463541666667 42.7926432291667  C 54.0376736111111 42.5988498263889  54.1333333333333 42.3693576388889  54 42.1041666666667  L 54 4.89583333333333  C 54.1333333333333 4.63064236111111  54.0376736111111 4.40115017361111  53.8463541666667 4.20735677083333  Z M 56.5802083333333 1.43815104166667  C 57.5267361111111 2.39691840277778  58 3.54947916666667  58 4.89583333333333  L 58 42.1041666666667  C 58 43.4505208333333  57.5267361111111 44.6030815972222  56.5802083333333 45.5618489583333  C 55.6336805555556 46.5206163194444  54.4958333333333 47  53.1666666666667 47  L 4.83333333333333 47  C 3.50416666666667 47  2.36631944444445 46.5206163194444  1.41979166666667 45.5618489583333  C 0.473263888888889 44.6030815972222  0 43.4505208333333  0 42.1041666666667  L 0 4.89583333333333  C 0 3.54947916666667  0.473263888888889 2.39691840277778  1.41979166666667 1.43815104166667  C 2.36631944444445 0.479383680555551  3.50416666666667 0  4.83333333333333 0  L 53.1666666666667 0  C 54.4958333333333 0  55.6336805555556 0.479383680555551  56.5802083333333 1.43815104166667  Z " fill-rule="nonzero" fill="#333333" stroke="none" transform="matrix(1 0 0 1 278 365 )" />
  </g>
</svg>